<?xml version="1.0" encoding="UTF-8"?>
<svg xmlns="http://www.w3.org/2000/svg" xmlns:xlink="http://www.w3.org/1999/xlink" viewBox="0 0 64 64" version="1.1">
<g id="surface1">
<path style=" fill:#F9E3AE;" d="M 42.539063 52.835938 C 50.519531 45.894531 55.425781 36.078125 56.1875 25.527344 L 56.875 13.988281 C 56.945313 12.890625 56.113281 11.941406 55.011719 11.867188 L 51.394531 11.628906 C 45.277344 11.21875 39.433594 8.949219 34.648438 5.121094 L 33.25 4 C 32.519531 3.417969 31.480469 3.417969 30.75 4 L 29.351563 5.121094 C 24.566406 8.949219 18.722656 11.21875 12.605469 11.628906 L 8.988281 11.867188 C 7.890625 11.941406 7.054688 12.890625 7.125 13.988281 L 7.8125 25.527344 C 8.574219 36.078125 13.480469 45.894531 21.460938 52.835938 L 30.6875 60.859375 C 31.441406 61.511719 32.558594 61.511719 33.3125 60.859375 Z "/>
<path style=" fill:#F6D397;" d="M 56.878906 13.988281 L 56.191406 25.53125 C 55.429688 36.078125 50.519531 45.898438 42.539063 52.839844 L 33.308594 60.859375 C 32.941406 61.179688 32.46875 61.351563 32 61.351563 L 32 3.558594 C 32.441406 3.558594 32.878906 3.710938 33.25 4 L 34.648438 5.121094 C 39.429688 8.949219 45.28125 11.21875 51.390625 11.628906 L 55.011719 11.871094 C 56.109375 11.941406 56.941406 12.890625 56.878906 13.988281 Z "/>
<path style=" fill:#FAEFDE;" d="M 17.382813 25.433594 L 18.621094 27.699219 L 20.882813 28.9375 L 18.621094 30.175781 L 17.382813 32.4375 L 16.144531 30.175781 L 13.878906 28.9375 L 16.144531 27.699219 Z "/>
<path style=" fill:#FAEFDE;" d="M 32.300781 11.4375 L 33.152344 13.003906 L 34.71875 13.855469 L 33.152344 14.710938 L 32.300781 16.277344 L 31.445313 14.710938 L 29.878906 13.855469 L 31.445313 13.003906 Z "/>
<path style=" fill:#FAEFDE;" d="M 45.527344 36.4375 L 46.109375 37.503906 L 47.175781 38.085938 L 46.109375 38.667969 L 45.527344 39.734375 L 44.945313 38.667969 L 43.878906 38.085938 L 44.945313 37.503906 Z "/>
<path style=" fill:#8B8E98;" d="M 37 24 C 37 20.886719 34.152344 18.4375 30.921875 19.113281 C 29.027344 19.507813 27.503906 21.042969 27.109375 22.9375 C 26.699219 24.929688 27.476563 26.757813 28.859375 27.871094 C 29.15625 28.113281 29.273438 28.515625 29.175781 28.886719 L 27.339844 35.742188 C 27.167969 36.375 27.644531 37 28.304688 37 L 35.695313 37 C 36.355469 37 36.832031 36.375 36.664063 35.742188 L 34.828125 28.886719 C 34.726563 28.511719 34.847656 28.113281 35.144531 27.871094 C 36.273438 26.957031 37 25.566406 37 24 Z "/>
<path style=" fill:#8D6C9F;" d="M 22 43.4375 C 21.445313 43.4375 21 43.886719 21 44.4375 L 21 46.4375 C 21 46.992188 21.445313 47.4375 22 47.4375 C 22.554688 47.4375 23 46.992188 23 46.4375 L 23 44.4375 C 23 43.886719 22.554688 43.4375 22 43.4375 Z "/>
<path style=" fill:#8D6C9F;" d="M 27 43.4375 C 26.445313 43.4375 26 43.886719 26 44.4375 L 26 46.4375 C 26 46.992188 26.445313 47.4375 27 47.4375 C 27.554688 47.4375 28 46.992188 28 46.4375 L 28 44.4375 C 28 43.886719 27.554688 43.4375 27 43.4375 Z "/>
<path style=" fill:#8D6C9F;" d="M 32 43.4375 C 31.445313 43.4375 31 43.886719 31 44.4375 L 31 46.4375 C 31 46.992188 31.445313 47.4375 32 47.4375 C 32.554688 47.4375 33 46.992188 33 46.4375 L 33 44.4375 C 33 43.886719 32.554688 43.4375 32 43.4375 Z "/>
<path style=" fill:#8D6C9F;" d="M 37 43.4375 C 36.445313 43.4375 36 43.886719 36 44.4375 L 36 46.4375 C 36 46.992188 36.445313 47.4375 37 47.4375 C 37.554688 47.4375 38 46.992188 38 46.4375 L 38 44.4375 C 38 43.886719 37.554688 43.4375 37 43.4375 Z "/>
<path style=" fill:#8D6C9F;" d="M 42 43.4375 C 41.445313 43.4375 41 43.886719 41 44.4375 L 41 46.4375 C 41 46.992188 41.445313 47.4375 42 47.4375 C 42.554688 47.4375 43 46.992188 43 46.4375 L 43 44.4375 C 43 43.886719 42.554688 43.4375 42 43.4375 Z "/>
<path style=" fill:#8D6C9F;" d="M 55.078125 10.308594 L 51.460938 10.066406 C 45.519531 9.671875 39.921875 7.496094 35.273438 3.777344 L 33.875 2.660156 C 32.769531 1.773438 31.230469 1.773438 30.125 2.65625 L 28.726563 3.777344 C 24.078125 7.496094 18.480469 9.671875 12.539063 10.066406 L 8.921875 10.308594 C 7.277344 10.417969 6.023438 11.84375 6.125 13.488281 L 6.816406 25.039063 C 7.601563 35.925781 12.570313 45.867188 20.804688 53.03125 L 30.03125 61.050781 C 30.59375 61.539063 31.296875 61.78125 32 61.78125 C 32.703125 61.78125 33.40625 61.539063 33.96875 61.050781 L 43.195313 53.027344 C 51.433594 45.867188 56.398438 35.925781 57.1875 25.027344 L 57.875 13.488281 C 57.976563 11.84375 56.722656 10.417969 55.078125 10.308594 Z M 55.191406 24.894531 C 54.664063 32.183594 52.160156 39.019531 48 44.804688 L 48 44.4375 C 48 43.886719 47.554688 43.4375 47 43.4375 C 46.445313 43.4375 46 43.886719 46 44.4375 L 46 46.4375 C 46 46.683594 46.097656 46.898438 46.242188 47.070313 C 44.917969 48.652344 43.46875 50.140625 41.882813 51.519531 L 32.65625 59.542969 C 32.28125 59.867188 31.71875 59.867188 31.34375 59.542969 L 22.117188 51.519531 C 20.53125 50.144531 19.082031 48.652344 17.757813 47.070313 C 17.902344 46.898438 18 46.683594 18 46.4375 L 18 44.4375 C 18 43.886719 17.554688 43.4375 17 43.4375 C 16.445313 43.4375 16 43.886719 16 44.4375 L 16 44.804688 C 11.839844 39.019531 9.335938 32.183594 8.8125 24.90625 L 8.121094 13.363281 C 8.089844 12.816406 8.507813 12.339844 9.054688 12.304688 L 12.671875 12.0625 C 19.023438 11.640625 25.007813 9.3125 29.976563 5.339844 L 31.375 4.21875 C 31.558594 4.070313 31.777344 3.996094 32 3.996094 C 32.21875 3.996094 32.441406 4.070313 32.625 4.21875 L 34.023438 5.339844 C 38.992188 9.3125 44.976563 11.640625 51.328125 12.0625 L 54.945313 12.304688 C 55.492188 12.339844 55.910156 12.816406 55.878906 13.367188 Z "/>
<path style=" fill:#8D6C9F;" d="M 44.210938 13.097656 C 41.171875 12.210938 38.3125 10.835938 35.71875 9.019531 L 33.148438 7.222656 C 32.460938 6.738281 31.539063 6.742188 30.855469 7.222656 L 28.285156 9.019531 C 23.945313 12.054688 18.863281 13.847656 13.582031 14.199219 L 12.933594 14.242188 C 12.382813 14.28125 11.964844 14.757813 12 15.308594 C 12.035156 15.835938 12.476563 16.238281 12.996094 16.238281 C 13.019531 16.238281 13.042969 16.238281 13.066406 16.238281 L 13.714844 16.195313 C 19.359375 15.816406 24.792969 13.902344 29.429688 10.660156 L 32 8.859375 L 34.570313 10.65625 C 37.34375 12.601563 40.398438 14.066406 43.648438 15.015625 C 44.179688 15.171875 44.734375 14.867188 44.886719 14.335938 C 45.042969 13.804688 44.738281 13.253906 44.210938 13.097656 Z "/>
<path style=" fill:#8D6C9F;" d="M 51.007813 14.238281 L 50.417969 14.195313 C 49.65625 14.144531 48.890625 14.066406 48.136719 13.953125 C 47.585938 13.867188 47.078125 14.253906 47 14.800781 C 46.921875 15.347656 47.300781 15.855469 47.847656 15.933594 C 48.652344 16.050781 49.472656 16.140625 50.285156 16.195313 L 50.875 16.234375 C 50.894531 16.234375 50.921875 16.234375 50.941406 16.234375 C 51.464844 16.234375 51.902344 15.832031 51.9375 15.304688 C 51.976563 14.753906 51.5625 14.273438 51.007813 14.238281 Z "/>
<path style=" fill:#8D6C9F;" d="M 35.78125 19.339844 C 34.371094 18.195313 32.519531 17.753906 30.714844 18.136719 C 28.445313 18.609375 26.601563 20.457031 26.132813 22.734375 C 25.671875 24.964844 26.472656 27.230469 28.207031 28.628906 L 26.371094 35.484375 C 26.210938 36.089844 26.335938 36.722656 26.71875 37.21875 C 27.097656 37.714844 27.675781 38 28.304688 38 L 35.699219 38 C 36.324219 38 36.902344 37.714844 37.285156 37.21875 C 37.664063 36.722656 37.792969 36.089844 37.628906 35.484375 L 35.777344 28.648438 C 37.1875 27.503906 38 25.808594 38 24 C 38 22.183594 37.191406 20.484375 35.78125 19.339844 Z M 34.515625 27.09375 C 33.914063 27.582031 33.660156 28.386719 33.863281 29.144531 L 35.695313 36 L 28.300781 36 L 30.136719 29.144531 C 30.34375 28.386719 30.085938 27.582031 29.488281 27.097656 C 28.300781 26.136719 27.777344 24.65625 28.089844 23.140625 C 28.402344 21.632813 29.621094 20.40625 31.125 20.09375 C 31.421875 20.03125 31.71875 20 32.007813 20 C 32.925781 20 33.796875 20.304688 34.519531 20.894531 C 35.460938 21.65625 36 22.789063 36 24 C 36 25.203125 35.460938 26.328125 34.515625 27.09375 Z "/>
</g>
</svg>
